<?xml version="1.0" encoding="UTF-8"?><svg id="b" xmlns="http://www.w3.org/2000/svg" width="690.98" height="198.68" viewBox="0 0 690.98 198.68"><defs><style>.d{fill:#fff;}</style></defs><g id="c"><path class="d" d="M425.39,11.15v26.61h24.47v25.54h-24.47v48.01c0,.24.69,1.95.88,2.36,3.66,7.82,17.3,3.76,23.23.7v23.56c-4.12,2.52-9.25,4.57-14.02,5.41-21.46,3.79-39.2-3.46-39.96-27.36v-52.69h-12.06l-.54-.54v-24.46l.54-.54h12.06V11.15h29.87Z"/><path class="d" d="M566.82,100.34h-72.7c2.38,16.89,18.4,23.31,33.9,19.67,6.71-1.57,11.59-5.59,16.97-9.57l16.77,14.89c-8.79,10.95-22.08,18.07-36.16,19.24-38.71,3.22-65.52-24.46-60.59-63.06,4.78-37.37,47.13-58.75,79.17-37.86,18.68,12.17,24.3,35.53,22.63,56.69ZM538.03,82c-1.26-15.63-14.27-26.63-30.06-20.87-8.21,3-13.5,12.48-14.21,20.87h44.27Z"/><path class="d" d="M690.98,4.68v84.52h-29.15c1.03-17.91-12.74-34.2-31.67-29.31-12.76,3.29-19.57,16.88-19.43,29.31h-29.15c-1.28-23.39,11.61-47.65,35.26-53.77,13.19-3.41,27.45-1.59,37.96,7.39l6.67,6.46V4.68h29.51Z"/><path class="d" d="M0,89.19h29.51c-.43,13.05,6.7,27.16,20.43,29.75,18.24,3.44,30.92-12.08,30.73-29.16l.48-.6h28.97c.67,18.6-7.03,38.47-23.21,48.56-9.9,6.18-22.58,8.25-34.03,5.94-9.31-1.88-16.7-7.84-23.02-14.58v44.6H0v-84.52Z"/><path class="d" d="M364.93,142.42h-29.51v-59.18c.88-27.18-36.88-27-36.72-.36l.02,59.54h-29.51V37.76h29.51v14.75c5.97-7.04,12.66-13.4,21.95-15.65,23.79-5.75,43.55,9.65,44.26,33.81v71.75Z"/><path class="d" d="M195.06,35.97v30.93c-7.82-.23-16.23,1.53-22.32,6.65-9.22,7.76-10.74,19.18-11.17,30.56-.48,12.7.39,25.61.01,38.32h-29.51V37.76h29.33l.54.54v19.06c0,.31-1.04,1.07.36.9,3.5-9.46,11.43-18.89,21.6-21.4.82-.2,3.56-.9,4.14-.9h7.02Z"/><rect class="d" x="214.13" width="31.31" height="26.25"/><rect class="d" x="214.85" y="37.76" width="29.87" height="104.66"/><path class="d" d="M564.66,173.35l-3.91-.05c-1.38-5.98-8.48-6.61-11.92-1.93-1.96,2.67-2.16,6-2.52,9.17,8.61-9.11,21.89-.86,18.01,10.99-2.86,8.73-15.77,9.53-19.88,1.13-3.03-6.19-2.43-19.15,2.23-24.51,5.49-6.31,17.16-3.52,17.98,5.2ZM561.29,187.58c0-4-3.25-7.24-7.25-7.24s-7.25,3.24-7.25,7.24,3.25,7.24,7.25,7.24,7.25-3.24,7.25-7.24Z"/><path class="d" d="M142.16,193.13l5.43-18.67,3.97.17,5.18,18.5,5.18-18.5,4-.21-7.72,23.76c-1.12-.17-2.67.44-3.4-.59l-5.25-17.77-5.18,18.14-3.65.04-7.55-23.56,4.15.35,4.85,18.35Z"/><path class="d" d="M501.95,164.82c16.17-2.09,17.14,28.78,5.32,33.01-18.63,6.66-21.06-30.97-5.32-33.01ZM502.31,168.41c-9.57,1.55-9.59,27.85,2.08,26.54,9.81-1.11,9.7-28.45-2.08-26.54Z"/><path class="d" d="M235.37,165.44v32.73h-3.6s0-3.6,0-3.6c-6.52,7.88-16.61,3.21-17.59-6.34-.89-8.67,4.72-16.75,14.01-13.28l3.58,2.71v-12.23h3.6ZM229.48,179.23c-1.69-1.58-4.23-1.89-6.45-1.48-6.53,1.2-6.75,14.9-.53,16.91,9.31,3.01,11.96-10.76,6.98-15.43Z"/><path class="d" d="M472.89,194.57h15.84l-.05,3.01-.85.59c-6.14-.53-13.46.71-19.45.02-.5-.06-1,.02-1.19-.61l.28-3.21,14.43-13.63c4.06-4.08,3.63-11.77-3.07-12.42-4.79-.46-7.56,2.57-7.75,7.18l-3.58.02c-1.1-11.78,17.08-15,20.41-4.04,3.05,10-9.92,16.42-15.01,23.1Z"/><path class="d" d="M524,194.57h15.48v3.6h-21.23l.34-3.8c4.02-4.31,9.17-8.11,13.16-12.38,1.46-1.56,3.47-4.17,3.74-6.33,1.25-9.79-14.17-9.74-13.28-.15h-3.96c.02-15,23.44-14.16,20.79,1.53-.82,4.84-9.47,11.57-13.06,15-.7.67-1.87,1.56-1.97,2.53Z"/><path class="d" d="M381.84,187.38h-17.27c-.57,8.12,9.82,10.69,13.53,3.66l3.39.3c-3.78,11.29-19.63,9.02-20.83-3.1-1.83-18.54,22.41-19.04,21.19-.86ZM377.88,184.14c-.2-9.11-12.97-8.84-13.32,0h13.32Z"/><path class="d" d="M344.41,187.38h-17.27c-.57,8.12,9.82,10.69,13.53,3.66l3.39.3c-3.78,11.29-19.63,9.02-20.83-3.1-1.83-18.54,22.41-19.04,21.19-.86ZM340.45,184.14c-.2-9.11-12.97-8.84-13.32,0h13.32Z"/><path class="d" d="M453.1,187.38h-17.63c-.27,7.81,10.23,11.03,13.33,3.6l3.58.36c-1.75,8.64-14.5,9.67-18.78,2.4-5.59-9.48,1.63-23.94,13.39-18.77,4.93,2.17,5.82,7.64,6.12,12.41ZM449.14,184.14c-.88-9.02-12.73-9.02-13.68,0h13.68Z"/><path class="d" d="M175.53,174.16c17.38-2.73,17.46,26.97.08,24.21-11.82-1.88-11.45-22.42-.08-24.21ZM182.33,179.24c-3.33-3.25-9.07-1.94-10.85,2.39-2.53,6.2.27,15.3,8.47,13.14,5.61-1.48,6.05-11.94,2.38-15.53Z"/><path class="d" d="M271.27,174.17c15.88-2.33,17,22.82,3.47,24.32-15.45,1.71-16.3-22.44-3.47-24.32ZM268.6,193.37c.45.42,2.07,1.36,2.66,1.48,13.01,2.71,11.42-21.18-.55-16.93-5.34,1.89-5.78,12.01-2.1,15.45Z"/><path class="d" d="M385.44,174.43h3.96s.18,3.24.18,3.24c3.32-5.37,12.15-4.57,14.5,1.33.15.38.79,2.59.79,2.8v15.82l-.6.48c-.46.1-.92.08-1.38.08-.74,0-1.52.12-1.98-.56v-16.18c0-.13-1.11-2.11-1.29-2.31-1.83-2.1-5.97-1.93-8.08-.21-.69.57-2.15,2.42-2.15,3.24v15.47l-.6.48c-.46.1-.92.08-1.38.08-.74,0-1.52.12-1.98-.56v-23.2Z"/><path class="d" d="M287.91,174.43h3.96s.18,3.24.18,3.24c3.32-5.37,12.15-4.57,14.5,1.33.15.38.79,2.59.79,2.8v15.82l-.6.48c-.46.1-.92.08-1.38.08-.74,0-1.52.12-1.98-.56v-16.18c0-.13-1.11-2.11-1.29-2.31-1.83-2.1-5.97-1.93-8.08-.21-.69.57-2.15,2.42-2.15,3.24v15.47l-.6.48c-.46.1-.92.08-1.38.08-.74,0-1.52.12-1.98-.56v-23.2Z"/><path class="d" d="M259.84,181.98l-3.54-.06c-1.14-3.99-5.17-5.36-8.89-3.92-5.07,1.97-5.43,12-1.84,15.36,2.15,2.01,6.98,2.38,9.07.14,1.89-2.02.67-3.63,5.2-2.89-.55,6.5-7.92,9.32-13.56,7.26-9.46-3.46-9.28-20.02.26-23.25,5.7-1.93,12.79.92,13.31,7.36Z"/><path class="d" d="M429.34,181.98l-3.92-.04c-.54-3.85-4.98-5.27-8.31-4.09-6.6,2.33-5.98,16.24.89,17.09,3.74.46,6.27-.57,7.44-4.27l3.9-.06c-1.08,7.66-10.89,10.35-16.56,5.58-5.98-5.03-5.42-17.23,1.69-20.98,5.81-3.07,14.02-.15,14.87,6.77Z"/><path class="d" d="M313.46,169.22c.7-3.94,5.74-4.57,9-4.14l-.41,3.19c-5.3-.49-4.79,1.84-4.63,6.17h4.68s0,3.24,0,3.24h-4.68s0,19.96,0,19.96l-.6.48c-.46.1-.92.08-1.38.08-.74,0-1.52.12-1.98-.56v-19.96l-4.32-.21v-3.03s4.32,0,4.32,0c.19-1.59-.27-3.71,0-5.22Z"/><rect class="d" x="206.58" y="165.44" width="3.6" height="32.73"/><path class="d" d="M348.37,174.43h3.6s.18,3.6.18,3.6c.97-2.34,2.81-3.82,5.41-3.97,2.98-.17,1.75,1.76,1.96,3.96-2.63-.62-5.74-.11-6.91,2.62-.12.27-.64,2.11-.64,2.23v15.29h-3.6v-23.74Z"/><path class="d" d="M192.54,174.43h3.6s.18,3.6.18,3.6c.97-2.34,2.81-3.82,5.41-3.97,2.98-.17,1.75,1.76,1.96,3.96-2.63-.62-5.74-.11-6.91,2.62-.12.27-.64,2.11-.64,2.23v15.29h-3.6v-23.74Z"/></g></svg>