<?xml version="1.0" encoding="UTF-8"?>
<svg id="Ebene_1" data-name="Ebene 1" xmlns="http://www.w3.org/2000/svg" version="1.1" viewBox="0 0 500 250">
  <defs>
    <style>
      .cls-1 {
        fill: #84868a;
        font-family: Gotham-Book, Gotham;
        font-size: 43.5px;
      }

      .cls-2 {
        fill: #000;
        stroke-width: 0px;
      }
    </style>
  </defs>
  <path class="cls-2" d="M139.17,74.26h15.36v10.91c1.55-3.7,3.67-6.67,6.37-8.89,2.69-2.22,6.33-3.23,10.91-3.03v16.07h-.81c-5.12,0-9.15,1.55-12.08,4.65-2.93,3.1-4.4,7.92-4.4,14.45v20.01h-15.36v-54.16Z"/>
  <path class="cls-2" d="M181.71,54.66h16.17v13.64h-16.17v-13.64ZM182.12,74.26h15.36v54.16h-15.36v-54.16Z"/>
  <path class="cls-2" d="M210.17,74.26h15.36v7.74c.87-1.15,1.83-2.26,2.88-3.31,1.04-1.05,2.21-1.98,3.49-2.8,1.28-.81,2.69-1.46,4.24-1.93,1.55-.47,3.3-.71,5.25-.71,5.86,0,10.39,1.79,13.59,5.36,3.2,3.57,4.8,8.49,4.8,14.75v35.06h-15.36v-30.14c0-3.63-.81-6.37-2.43-8.21-1.62-1.85-3.91-2.77-6.87-2.77s-5.31.92-7.02,2.77c-1.72,1.85-2.58,4.59-2.58,8.21v30.14h-15.36v-54.16Z"/>
  <path class="cls-2" d="M291.41,129.33c-2.36,0-4.5-.25-6.42-.76-1.92-.5-3.57-1.4-4.95-2.68-1.38-1.28-2.46-2.95-3.23-5-.77-2.05-1.16-4.66-1.16-7.83v-25.67h-6.47v-13.14h6.47v-13.84h15.36v13.84h12.73v13.14h-12.73v23.22c0,3.52,1.65,5.27,4.95,5.27,2.69,0,5.22-.67,7.58-2.02v12.33c-1.62.94-3.4,1.7-5.36,2.27-1.95.57-4.21.86-6.77.86Z"/>
  <path class="cls-2" d="M339.62,129.64c-4.04,0-7.8-.67-11.27-2.02-3.47-1.35-6.47-3.27-8.99-5.76-2.53-2.49-4.5-5.44-5.91-8.84-1.41-3.4-2.12-7.19-2.12-11.37v-.2c0-3.84.66-7.48,1.97-10.91,1.31-3.44,3.15-6.43,5.51-8.99,2.36-2.56,5.17-4.58,8.44-6.06,3.27-1.48,6.89-2.22,10.86-2.22,4.51,0,8.42.81,11.72,2.42,3.3,1.62,6.05,3.79,8.24,6.52,2.19,2.73,3.81,5.86,4.85,9.4,1.04,3.54,1.57,7.23,1.57,11.07,0,.61-.02,1.25-.05,1.92-.03.67-.08,1.38-.15,2.12h-37.69c.74,3.5,2.27,6.15,4.6,7.93,2.32,1.79,5.2,2.68,8.64,2.68,2.56,0,4.85-.44,6.87-1.31,2.02-.88,4.11-2.29,6.26-4.24l8.79,7.78c-2.56,3.17-5.66,5.64-9.3,7.43-3.64,1.78-7.92,2.68-12.83,2.68ZM349.53,97.1c-.47-3.44-1.68-6.21-3.64-8.34-1.95-2.12-4.55-3.18-7.78-3.18s-5.85,1.04-7.83,3.13c-1.99,2.09-3.28,4.89-3.89,8.39h23.14Z"/>
  <text class="cls-1" transform="translate(69.04 184.73)"><tspan x="0" y="0">worldconference</tspan></text>
  <path class="cls-2" d="M127.74,100.94h-15.17c0,2.29-.54,4.96-1.25,6.78-.71,1.82-1.67,3.39-2.88,4.7-1.21,1.31-2.61,2.32-4.19,3.03-1.58.71-3.28,1.06-5.1,1.06s-3.52-.35-5.1-1.06c-1.58-.71-2.97-1.72-4.14-3.03-1.18-1.31-2.12-2.9-2.83-4.75-.71-1.85-1.04-4.51-1.04-6.73h-15.17v43.77h15.36v-23.24c1.82,2.16,4.06,4.04,6.72,5.66,2.66,1.62,6.05,2.43,10.16,2.43,3.23,0,6.33-.61,9.3-1.82,2.96-1.21,5.57-3.01,7.83-5.41,2.26-2.39,4.08-5.32,5.46-8.79,1.38-3.47,2.07-7.46,2.07-11.97v-.2c0-.14,0-.28,0-.42Z"/>
  <path class="cls-2" d="M413.47,57.06v23.24c-1.82-2.16-4.06-4.04-6.72-5.66-2.66-1.62-6.05-2.43-10.16-2.43-3.23,0-6.33.61-9.3,1.82-2.96,1.21-5.57,3.01-7.83,5.41-2.26,2.39-4.08,5.32-5.46,8.79-1.38,3.47-2.07,7.46-2.07,11.97v.2c0,.14,0,.28,0,.42h15.17c0-2.29.54-4.96,1.25-6.78.71-1.82,1.67-3.39,2.88-4.7,1.21-1.31,2.61-2.32,4.19-3.03,1.58-.71,3.28-1.06,5.1-1.06s3.52.35,5.1,1.06c1.58.71,2.97,1.72,4.14,3.03,1.18,1.31,2.12,2.9,2.83,4.75.71,1.85,1.04,4.51,1.04,6.73h15.17v-43.77h-15.36Z"/>
</svg>