<?xml version="1.0" encoding="UTF-8"?><svg id="b" xmlns="http://www.w3.org/2000/svg" width="294.23" height="388.34" viewBox="0 0 294.23 388.34"><g id="c"><path d="M294.23,388.34h-78.8c.38-16.86-3-33.69-11.75-48.16-27.11-44.85-89.43-41.89-114.23,3.56-7.43,13.62-10.39,29.19-11.11,44.6H0c-.07-21.15,2.43-42.37,9.78-62.25,21.23-57.41,71.03-90.97,133.08-84.55,29.52,3.06,52.2,19.25,71.63,40.5v-119.35h79.04s.7.65.7.7v224.94Z"/><path d="M78.34,0c.21,15.83,2.63,31.05,10.18,45.07,25.26,46.92,89.12,46.91,115.33.93,7.83-13.74,11.5-30.23,11.58-46h78.34c2.27,55.24-24.08,113.88-76.3,136.99-23.79,10.53-53.11,13.48-78.51,7.76-23.26-5.24-43.11-20.34-58.61-37.87-.28-.32.03-.89-1.07-.6v119.35H0V0h78.34Z"/></g></svg>