<?xml version="1.0" encoding="UTF-8"?>
<svg id="Layer_1" data-name="Layer 1" xmlns="http://www.w3.org/2000/svg" viewBox="0 0 600 100">
  <defs>
    <style>
      .cls-1 {
        fill: #f15a29;
      }

      .cls-1, .cls-2 {
        fill-rule: evenodd;
      }
    </style>
  </defs>
  <path d="M590.98,78.16c.66,0,1.29.17,1.9.5.61.33,1.08.8,1.43,1.42.35.62.52,1.26.52,1.94s-.17,1.31-.51,1.92c-.34.61-.82,1.08-1.42,1.42-.61.34-1.25.51-1.92.51s-1.31-.17-1.92-.51c-.61-.34-1.08-.82-1.42-1.42-.34-.61-.51-1.25-.51-1.92s.17-1.32.52-1.94c.35-.62.82-1.09,1.43-1.42.61-.33,1.24-.5,1.9-.5ZM590.98,78.91c-.53,0-1.04.13-1.52.4-.49.26-.87.65-1.15,1.14-.28.5-.42,1.02-.42,1.56s.14,1.05.41,1.54c.27.49.66.87,1.14,1.15.49.27,1,.41,1.54.41s1.05-.14,1.54-.41c.49-.28.87-.66,1.14-1.15.28-.49.41-1,.41-1.54s-.14-1.06-.42-1.56c-.28-.5-.66-.88-1.15-1.14-.49-.27-1-.4-1.53-.4ZM589.23,84.07v-4.09h.83c.78,0,1.21,0,1.31,0,.28.02.49.08.64.16.15.08.28.22.38.39.1.18.15.37.15.59,0,.3-.1.55-.29.76-.19.21-.46.34-.81.39.12.05.22.1.29.15.07.06.16.16.28.31.03.04.13.21.3.5l.48.83h-1.03l-.34-.66c-.23-.45-.42-.73-.57-.84-.15-.12-.34-.17-.57-.17h-.22v1.68h-.83ZM590.06,81.75h.34c.48,0,.78-.02.89-.06.12-.04.21-.1.27-.19.07-.09.1-.2.1-.31s-.03-.22-.1-.3-.16-.15-.28-.19c-.12-.04-.42-.06-.89-.06h-.34v1.12Z"/>
  <path class="cls-2" d="M299.22,13.35l4.95,4.95v7l-4.95,4.95h-7l-4.95-4.95v-7l4.95-4.95h7ZM557.11,73.1c2.21,0,4.13-.47,5.74-1.41,1.61-1.01,2.89-2.38,3.82-4.13.94-1.74,1.41-3.76,1.41-6.04s-.47-4.26-1.41-5.94c-.87-1.74-2.15-3.12-3.82-4.13-1.61-1.01-3.49-1.51-5.64-1.51s-4.06.5-5.74,1.51c-1.61,1.01-2.92,2.38-3.93,4.13-.94,1.74-1.41,3.72-1.41,5.94s.47,4.19,1.41,5.94c.94,1.74,2.25,3.12,3.93,4.13,1.68,1.01,3.56,1.51,5.64,1.51ZM567.48,82.39c-1.17.98-2.48,1.85-3.93,2.59-2.75,1.34-5.81,2.01-9.16,2.01-4.63,0-8.76-1.11-12.38-3.32-3.56-2.21-6.38-5.23-8.46-9.06-2.01-3.83-3.02-8.19-3.02-13.09s1.01-9.26,3.02-13.09c2.08-3.83,4.9-6.85,8.46-9.06,3.62-2.21,7.75-3.32,12.38-3.32,3.36,0,6.38.64,9.06,1.91,1.37.63,2.61,1.39,3.72,2.27V12.9h15.4v73.08h-15.1v-3.59ZM507.39,59.11v26.88h-15.4v-48.92h15.4v3.72c3.02-3.15,7.21-4.73,12.58-4.73,2.35,0,4.4.37,6.14,1.11,1.81.67,3.39,1.74,4.73,3.22l-9.16,11.58c-.67-.74-1.51-1.31-2.52-1.71-1.01-.4-2.15-.6-3.42-.6-2.55,0-4.6.81-6.14,2.42-1.48,1.54-2.21,3.89-2.21,7.05ZM455.64,73.1c3.29,0,5.94-1.07,7.95-3.22,2.01-2.21,3.02-5,3.02-8.36,0-2.28-.47-4.29-1.41-6.04-.87-1.74-2.15-3.09-3.83-4.03-1.61-1.01-3.49-1.51-5.64-1.51s-4.06.5-5.74,1.51c-1.61.94-2.92,2.28-3.93,4.03-.94,1.74-1.41,3.76-1.41,6.04s.47,4.19,1.41,5.94c.94,1.74,2.25,3.12,3.93,4.13,1.68,1.01,3.56,1.51,5.64,1.51ZM466.01,82.02c-1.29,1.22-2.8,2.24-4.53,3.06-2.68,1.28-5.67,1.91-8.96,1.91-4.5,0-8.52-1.11-12.08-3.32-3.49-2.21-6.27-5.23-8.36-9.06-2.01-3.83-3.02-8.19-3.02-13.09s1.01-9.26,3.02-13.09c2.08-3.83,4.87-6.85,8.36-9.06,3.56-2.21,7.58-3.32,12.08-3.32,3.29,0,6.24.64,8.86,1.91,1.76.84,3.3,1.89,4.63,3.16v-4.06h15.1v48.92h-15.1v-3.96ZM397.66,73.1c2.21,0,4.16-.47,5.84-1.41,1.68-1.01,2.95-2.38,3.82-4.13.94-1.81,1.41-3.86,1.41-6.14s-.47-4.26-1.41-5.94c-.94-1.74-2.25-3.09-3.93-4.03-1.61-1.01-3.52-1.51-5.74-1.51s-4.06.5-5.74,1.51c-1.68.94-2.99,2.28-3.93,4.03-.94,1.74-1.41,3.76-1.41,6.04s.47,4.23,1.41,6.04c.94,1.74,2.25,3.12,3.93,4.13,1.68.94,3.59,1.41,5.74,1.41ZM397.66,87.1c-5.03,0-9.6-1.11-13.69-3.32-4.03-2.28-7.21-5.37-9.56-9.26-2.35-3.89-3.52-8.25-3.52-13.09s1.17-9.16,3.52-12.99c2.35-3.83,5.54-6.85,9.56-9.06,4.03-2.28,8.59-3.42,13.69-3.42s9.66,1.11,13.69,3.32c4.03,2.21,7.21,5.27,9.56,9.16,2.35,3.83,3.52,8.15,3.52,12.99s-1.17,9.19-3.52,13.09c-2.35,3.89-5.54,6.98-9.56,9.26-4.03,2.21-8.59,3.32-13.69,3.32ZM339.68,73.1h4.72s6.78-6.77,6.78-6.77v-9.58l-6.78-6.78h-3.97c-.25-.01-.5-.02-.75-.02s-.51,0-.75.02h-4.1l-6.78,6.78v9.58l6.78,6.78h4.86ZM329.41,82.39v3.59h-15.2V12.9h15.4v27.34c1.12-.88,2.36-1.64,3.72-2.27,2.75-1.28,5.77-1.91,9.06-1.91,4.63,0,8.73,1.11,12.28,3.32,3.62,2.21,6.44,5.23,8.46,9.06,2.08,3.83,3.12,8.19,3.12,13.09s-1.04,9.26-3.12,13.09c-2.01,3.83-4.83,6.85-8.46,9.06-3.56,2.21-7.65,3.32-12.28,3.32-3.29,0-6.31-.67-9.06-2.01-1.45-.74-2.76-1.6-3.93-2.59ZM287.94,85.99h15.4v-48.92h-15.4v48.92ZM254.72,50.15h-11.07v-13.09h11.07v-20.23h15.4v20.23h11.07v13.09h-11.07v35.84h-15.4v-35.84ZM221.5,85.99h15.4V12.9h-15.4v73.08ZM188.98,87.1c-4.5,0-8.49-.91-11.98-2.72-3.42-1.88-6.11-4.43-8.05-7.65-1.95-3.29-2.92-7.05-2.92-11.27v-28.39h15.4v28.19c0,1.68.27,3.12.81,4.33.6,1.21,1.48,2.15,2.62,2.82,1.14.67,2.52,1.01,4.13,1.01,2.28,0,4.09-.7,5.44-2.11,1.34-1.48,2.01-3.49,2.01-6.04v-28.19h15.4v28.29c0,4.3-.97,8.09-2.92,11.38-1.95,3.22-4.63,5.77-8.05,7.65-3.42,1.81-7.38,2.72-11.88,2.72ZM97.98,46.56v39.43h-15.7V14.92h11.28l25.11,39.11,25.02-39.11h11.38v71.07h-15.8v-39.3l-15.4,24h-10.47l-15.4-24.13Z"/>
  <path class="cls-1" d="M76.47,21.51c0,3.77-3.06,6.83-6.83,6.83s-6.83-3.06-6.83-6.83,3.06-6.83,6.83-6.83,6.83,3.06,6.83,6.83ZM50.76,21.51l18.88,18.88v26.71l-18.88,18.88h-26.71l-18.88-18.88v-26.71l18.88-18.88h26.71Z"/>
</svg>